<svg xmlns="http://www.w3.org/2000/svg" width="904" height="554" version="1.1">
<style type="text/css">
.l0{
  fill: none;
  stroke: #000000;
  stroke-linecap:round;
  stroke-linejoin:round;
  stroke-width: 0.739543;
}
.l1{
  fill: #00ccee;
  stroke: #00ccee;
  stroke-linecap:round;
  stroke-linejoin:round;
  stroke-width: 0.739543;
}
.l2{
  fill: none;
  stroke: #3f3f3f;
  stroke-linecap:round;
  stroke-linejoin:round;
  stroke-width: 0.739543;
}
.l3{
  fill: none;
  stroke: #cccccc;
  stroke-linecap:round;
  stroke-linejoin:round;
  stroke-width: 0.739543;
}
.l4{
  fill: #88dd00;
  stroke: #88dd00;
  stroke-linecap:round;
  stroke-linejoin:round;
  stroke-width: 0.739543;
}
.l5{
  fill: #bb2200;
  stroke: #bb2200;
  stroke-linecap:round;
  stroke-linejoin:round;
  stroke-width: 0.739543;
}
.l6{
  fill: none;
  stroke: #00ccee;
  stroke-linecap:round;
  stroke-linejoin:round;
  stroke-width: 0.739543;
}
.l7{
  fill: none;
  stroke: #ff0000;
  stroke-linecap:round;
  stroke-linejoin:round;
  stroke-width: 0.739543;
}
.l8{
  fill: none;
  stroke: #ffff00;
  stroke-linecap:round;
  stroke-linejoin:round;
  stroke-width: 0.739543;
}
.l9{
  fill: none;
  stroke: #ffffff;
  stroke-linecap:round;
  stroke-linejoin:round;
  stroke-width: 0.739543;
}
.l10{
  fill: none;
  stroke: #ff00ff;
  stroke-linecap:round;
  stroke-linejoin:round;
  stroke-width: 0.739543;
}
.l11{
  fill: none;
  stroke: #00ff00;
  stroke-linecap:round;
  stroke-linejoin:round;
  stroke-width: 0.739543;
}
.l12{
  fill: none;
  stroke: #0000cc;
  stroke-linecap:round;
  stroke-linejoin:round;
  stroke-width: 0.739543;
}
.l13{
  fill: none;
  stroke: #aaaa00;
  stroke-linecap:round;
  stroke-linejoin:round;
  stroke-width: 0.739543;
}
.l14{
  fill: none;
  stroke: #aaccaa;
  stroke-linecap:round;
  stroke-linejoin:round;
  stroke-width: 0.739543;
}
.l15{
  fill: none;
  stroke: #ff7777;
  stroke-linecap:round;
  stroke-linejoin:round;
  stroke-width: 0.739543;
}
.l16{
  fill: none;
  stroke: #bfff81;
  stroke-linecap:round;
  stroke-linejoin:round;
  stroke-width: 0.739543;
}
.l17{
  fill: none;
  stroke: #00ffcc;
  stroke-linecap:round;
  stroke-linejoin:round;
  stroke-width: 0.739543;
}
.l18{
  fill: none;
  stroke: #ce0097;
  stroke-linecap:round;
  stroke-linejoin:round;
  stroke-width: 0.739543;
}
.l19{
  fill: none;
  stroke: #d2d46b;
  stroke-linecap:round;
  stroke-linejoin:round;
  stroke-width: 0.739543;
}
.l20{
  fill: none;
  stroke: #ef6158;
  stroke-linecap:round;
  stroke-linejoin:round;
  stroke-width: 0.739543;
}
.l21{
  fill: none;
  stroke: #fdb200;
  stroke-linecap:round;
  stroke-linejoin:round;
  stroke-width: 0.739543;
}
</style>
<rect x="0" y="0" width="904" height="554" fill="rgb(0,0,0)" stroke="rgb(0,0,0)" stroke-width="0.739543" />
<path class="l1" d="M222.997 421.35L222.997 434.986"/>
<path class="l1" d="M221.351 421.35L224.644 421.35"/>
<path class="l1" d="M221.351 434.986L224.644 434.986"/>
<path class="l1" d="M229.583 426.463L229.583 434.986"/>
<path class="l1" d="M231.229 426.463L234.522 426.463"/>
<path class="l1" d="M236.168 428.168L236.168 434.986"/>
<path class="l1" d="M229.583 428.168L230.406 426.89"/>
<path class="l1" d="M230.406 426.89L231.229 426.463"/>
<path class="l1" d="M235.345 426.89L236.168 428.168"/>
<path class="l1" d="M234.522 426.463L235.345 426.89"/>
<path class="l1" d="M472.769 376.099L472.769 386.326"/>
<path class="l1" d="M474.415 374.395L477.708 374.395"/>
<path class="l1" d="M479.354 376.099L479.354 386.326"/>
<path class="l1" d="M474.415 388.031L477.708 388.031"/>
<path class="l1" d="M478.531 374.821L479.354 376.099"/>
<path class="l1" d="M477.708 374.395L478.531 374.821"/>
<path class="l1" d="M472.769 376.099L473.592 374.821"/>
<path class="l1" d="M473.592 374.821L474.415 374.395"/>
<path class="l1" d="M472.769 386.326L473.592 387.605"/>
<path class="l1" d="M473.592 387.605L474.415 388.031"/>
<path class="l1" d="M478.531 387.605L479.354 386.326"/>
<path class="l1" d="M477.708 388.031L478.531 387.605"/>
<path class="l1" d="M482.647 379.508L482.647 386.326"/>
<path class="l1" d="M488.409 379.508L488.409 388.031"/>
<path class="l1" d="M484.293 388.031L486.763 388.031"/>
<path class="l1" d="M483.059 387.178L484.293 388.031"/>
<path class="l1" d="M482.647 386.326L483.059 387.178"/>
<path class="l1" d="M486.763 388.031L487.998 387.178"/>
<path class="l1" d="M487.998 387.178L488.409 386.326"/>
<path class="l1" d="M494.172 374.395L494.172 386.326"/>
<path class="l1" d="M495.818 388.031L497.464 388.031"/>
<path class="l1" d="M494.172 377.804L497.464 377.804"/>
<path class="l1" d="M494.583 387.605L495.818 388.031"/>
<path class="l1" d="M494.172 386.326L494.583 387.605"/>
<path class="l1" d="M352.446 520.024L352.446 526.222"/>
<path class="l1" d="M353.444 527.255L355.44 527.255"/>
<path class="l1" d="M356.438 524.156L356.438 526.222"/>
<path class="l1" d="M354.442 524.156L356.438 524.156"/>
<path class="l1" d="M353.444 518.991L355.44 518.991"/>
<path class="l1" d="M355.939 526.997L356.438 526.222"/>
<path class="l1" d="M355.44 527.255L355.939 526.997"/>
<path class="l1" d="M352.446 526.222L352.945 526.997"/>
<path class="l1" d="M352.945 526.997L353.444 527.255"/>
<path class="l1" d="M352.446 520.024L352.945 519.249"/>
<path class="l1" d="M352.945 519.249L353.444 518.991"/>
<path class="l1" d="M355.939 519.249L356.438 520.024"/>
<path class="l1" d="M355.44 518.991L355.939 519.249"/>
<path class="l1" d="M358.433 518.991L358.433 527.255"/>
<path class="l1" d="M358.433 518.991L362.424 527.255"/>
<path class="l1" d="M362.424 518.991L362.424 527.255"/>
<path class="l1" d="M364.42 518.991L364.42 527.255"/>
<path class="l1" d="M364.42 527.255L366.166 527.255"/>
<path class="l1" d="M367.912 520.54L368.411 522.606"/>
<path class="l1" d="M367.912 525.705L368.411 523.639"/>
<path class="l1" d="M368.411 522.606L368.411 523.639"/>
<path class="l1" d="M366.166 527.255L366.665 526.997"/>
<path class="l1" d="M366.665 526.997L367.413 526.48"/>
<path class="l1" d="M367.413 526.48L367.912 525.705"/>
<path class="l1" d="M364.42 518.991L366.166 518.991"/>
<path class="l1" d="M366.166 518.991L366.665 519.249"/>
<path class="l1" d="M366.665 519.249L367.413 519.766"/>
<path class="l1" d="M367.413 519.766L367.912 520.54"/>
<path class="l1" d="M141.149 226.554L141.149 232.752"/>
<path class="l1" d="M142.146 233.786L144.142 233.786"/>
<path class="l1" d="M145.14 230.686L145.14 232.752"/>
<path class="l1" d="M143.144 230.686L145.14 230.686"/>
<path class="l1" d="M142.146 225.521L144.142 225.521"/>
<path class="l1" d="M144.641 233.527L145.14 232.752"/>
<path class="l1" d="M144.142 233.786L144.641 233.527"/>
<path class="l1" d="M141.149 232.752L141.647 233.527"/>
<path class="l1" d="M141.647 233.527L142.146 233.786"/>
<path class="l1" d="M141.149 226.554L141.647 225.78"/>
<path class="l1" d="M141.647 225.78L142.146 225.521"/>
<path class="l1" d="M144.641 225.78L145.14 226.554"/>
<path class="l1" d="M144.142 225.521L144.641 225.78"/>
<path class="l1" d="M147.135 225.521L147.135 233.786"/>
<path class="l1" d="M147.135 225.521L151.127 233.786"/>
<path class="l1" d="M151.127 225.521L151.127 233.786"/>
<path class="l1" d="M153.122 225.521L153.122 233.786"/>
<path class="l1" d="M153.122 233.786L154.868 233.786"/>
<path class="l1" d="M156.614 227.071L157.113 229.137"/>
<path class="l1" d="M156.614 232.236L157.113 230.17"/>
<path class="l1" d="M157.113 229.137L157.113 230.17"/>
<path class="l1" d="M154.868 233.786L155.367 233.527"/>
<path class="l1" d="M155.367 233.527L156.115 233.011"/>
<path class="l1" d="M156.115 233.011L156.614 232.236"/>
<path class="l1" d="M153.122 225.521L154.868 225.521"/>
<path class="l1" d="M154.868 225.521L155.367 225.78"/>
<path class="l1" d="M155.367 225.78L156.115 226.296"/>
<path class="l1" d="M156.115 226.296L156.614 227.071"/>
<path class="l1" d="M117.671 14.2235L119.667 22.4876"/>
<path class="l1" d="M119.667 22.4876L121.662 14.2235"/>
<path class="l1" d="M123.658 14.2235L123.658 22.4876"/>
<path class="l1" d="M123.658 22.4876L125.404 22.4876"/>
<path class="l1" d="M127.15 15.773L127.649 17.839"/>
<path class="l1" d="M127.15 20.9381L127.649 18.872"/>
<path class="l1" d="M127.649 17.839L127.649 18.872"/>
<path class="l1" d="M125.404 22.4876L125.903 22.2293"/>
<path class="l1" d="M125.903 22.2293L126.651 21.7128"/>
<path class="l1" d="M126.651 21.7128L127.15 20.9381"/>
<path class="l1" d="M123.658 14.2235L125.404 14.2235"/>
<path class="l1" d="M125.404 14.2235L125.903 14.4817"/>
<path class="l1" d="M125.903 14.4817L126.651 14.9982"/>
<path class="l1" d="M126.651 14.9982L127.15 15.773"/>
<path class="l1" d="M129.645 14.2235L129.645 22.4876"/>
<path class="l1" d="M129.645 22.4876L131.391 22.4876"/>
<path class="l1" d="M133.137 15.773L133.636 17.839"/>
<path class="l1" d="M133.137 20.9381L133.636 18.872"/>
<path class="l1" d="M133.636 17.839L133.636 18.872"/>
<path class="l1" d="M131.391 22.4876L131.89 22.2293"/>
<path class="l1" d="M131.89 22.2293L132.638 21.7128"/>
<path class="l1" d="M132.638 21.7128L133.137 20.9381"/>
<path class="l1" d="M129.645 14.2235L131.391 14.2235"/>
<path class="l1" d="M131.391 14.2235L131.89 14.4817"/>
<path class="l1" d="M131.89 14.4817L132.638 14.9982"/>
<path class="l1" d="M132.638 14.9982L133.137 15.773"/>
<path class="l3" d="M314.061 395.734L314.061 403.998"/>
<path class="l3" d="M314.061 395.734L316.056 398.833"/>
<path class="l3" d="M316.056 398.833L318.052 395.734"/>
<path class="l3" d="M318.052 395.734L318.052 403.998"/>
<path class="l3" d="M321.045 403.998L323.041 403.998"/>
<path class="l3" d="M322.043 395.734L322.043 403.998"/>
<path class="l3" d="M321.045 397.8L322.043 395.734"/>
<path class="l7" d="M347.325 451.235L348.822 451.235"/>
<path class="l7" d="M346.577 452.009L346.577 453.559"/>
<path class="l7" d="M347.325 454.334L348.822 454.334"/>
<path class="l7" d="M349.57 455.108L349.57 456.658"/>
<path class="l7" d="M347.325 457.433L348.822 457.433"/>
<path class="l7" d="M346.951 457.239L347.325 457.433"/>
<path class="l7" d="M346.577 456.658L346.951 457.239"/>
<path class="l7" d="M348.822 457.433L349.196 457.239"/>
<path class="l7" d="M349.196 457.239L349.57 456.658"/>
<path class="l7" d="M349.196 454.527L349.57 455.108"/>
<path class="l7" d="M348.822 454.334L349.196 454.527"/>
<path class="l7" d="M346.951 454.14L347.325 454.334"/>
<path class="l7" d="M346.577 453.559L346.951 454.14"/>
<path class="l7" d="M346.951 451.428L347.325 451.235"/>
<path class="l7" d="M346.577 452.009L346.951 451.428"/>
<path class="l7" d="M348.822 451.235L349.196 451.428"/>
<path class="l7" d="M349.196 451.428L349.57 452.009"/>
<path class="l7" d="M346.577 400.077L346.577 406.275"/>
<path class="l7" d="M346.577 406.275L347.887 406.275"/>
<path class="l7" d="M349.196 401.239L349.57 402.789"/>
<path class="l7" d="M349.196 405.113L349.57 403.563"/>
<path class="l7" d="M349.57 402.789L349.57 403.563"/>
<path class="l7" d="M347.887 406.275L348.261 406.081"/>
<path class="l7" d="M348.261 406.081L348.822 405.694"/>
<path class="l7" d="M348.822 405.694L349.196 405.113"/>
<path class="l7" d="M346.577 400.077L347.887 400.077"/>
<path class="l7" d="M347.887 400.077L348.261 400.271"/>
<path class="l7" d="M348.261 400.271L348.822 400.658"/>
<path class="l7" d="M348.822 400.658L349.196 401.239"/>
<path class="l7" d="M343.642 418.953L343.642 425.151"/>
<path class="l7" d="M343.642 418.953L345.887 418.953"/>
<path class="l7" d="M343.642 422.052L345.7 422.052"/>
<path class="l7" d="M343.642 425.151L345.887 425.151"/>
<path class="l7" d="M346.262 419.147L346.636 419.728"/>
<path class="l7" d="M345.887 418.953L346.262 419.147"/>
<path class="l7" d="M346.262 424.957L346.636 424.376"/>
<path class="l7" d="M345.887 425.151L346.262 424.957"/>
<path class="l7" d="M345.7 422.052L346.075 422.246"/>
<path class="l7" d="M345.7 422.052L346.075 421.858"/>
<path class="l7" d="M346.636 423.214L346.636 424.376"/>
<path class="l7" d="M346.449 422.633L346.636 423.214"/>
<path class="l7" d="M346.075 422.246L346.449 422.633"/>
<path class="l7" d="M346.636 419.728L346.636 420.89"/>
<path class="l7" d="M346.449 421.471L346.636 420.89"/>
<path class="l7" d="M346.075 421.858L346.449 421.471"/>
<path class="l7" d="M303.936 419.728L303.936 424.376"/>
<path class="l7" d="M304.684 425.151L306.181 425.151"/>
<path class="l7" d="M306.929 422.827L306.929 424.376"/>
<path class="l7" d="M305.433 422.827L306.929 422.827"/>
<path class="l7" d="M304.684 418.953L306.181 418.953"/>
<path class="l7" d="M306.555 424.957L306.929 424.376"/>
<path class="l7" d="M306.181 425.151L306.555 424.957"/>
<path class="l7" d="M303.936 424.376L304.31 424.957"/>
<path class="l7" d="M304.31 424.957L304.684 425.151"/>
<path class="l7" d="M303.936 419.728L304.31 419.147"/>
<path class="l7" d="M304.31 419.147L304.684 418.953"/>
<path class="l7" d="M306.555 419.147L306.929 419.728"/>
<path class="l7" d="M306.181 418.953L306.555 419.147"/>
<path class="l3" d="M355.381 410.348L355.381 415.513"/>
<path class="l3" d="M356.379 410.348L358.375 410.348"/>
<path class="l3" d="M359.372 411.381L359.372 415.513"/>
<path class="l3" d="M355.381 411.381L355.88 410.607"/>
<path class="l3" d="M355.88 410.607L356.379 410.348"/>
<path class="l3" d="M358.873 410.607L359.372 411.381"/>
<path class="l3" d="M358.375 410.348L358.873 410.607"/>
<path class="l3" d="M362.366 408.799L362.366 415.513"/>
<path class="l3" d="M363.364 407.249L364.361 407.249"/>
<path class="l3" d="M362.366 412.414L364.361 412.414"/>
<path class="l3" d="M362.366 408.799L362.615 407.766"/>
<path class="l3" d="M362.615 407.766L363.364 407.249"/>
<path class="l3" d="M367.355 412.414L371.346 412.414"/>
<path class="l3" d="M368.353 410.348L370.348 410.348"/>
<path class="l3" d="M368.353 415.513L370.348 415.513"/>
<path class="l3" d="M371.096 414.997L371.346 414.48"/>
<path class="l3" d="M370.348 415.513L371.096 414.997"/>
<path class="l3" d="M371.346 411.898L371.346 412.414"/>
<path class="l3" d="M371.096 410.865L371.346 411.898"/>
<path class="l3" d="M370.348 410.348L371.096 410.865"/>
<path class="l3" d="M367.355 411.898L367.604 410.865"/>
<path class="l3" d="M367.604 410.865L368.353 410.348"/>
<path class="l3" d="M367.355 414.48L367.604 414.997"/>
<path class="l3" d="M367.604 414.997L368.353 415.513"/>
<path class="l3" d="M367.355 411.898L367.355 414.48"/>
<path class="l3" d="M374.339 407.249L374.339 414.48"/>
<path class="l3" d="M375.337 415.513L376.335 415.513"/>
<path class="l3" d="M374.339 409.315L376.335 409.315"/>
<path class="l3" d="M374.589 415.255L375.337 415.513"/>
<path class="l3" d="M374.339 414.48L374.589 415.255"/>
<path class="l3" d="M379.328 415.513L383.319 415.513"/>
<path class="l3" d="M389.306 408.282L389.306 414.48"/>
<path class="l3" d="M385.315 408.282L385.564 407.766"/>
<path class="l3" d="M385.564 407.766L386.313 407.249"/>
<path class="l3" d="M389.057 407.766L389.306 408.282"/>
<path class="l3" d="M388.308 407.249L389.057 407.766"/>
<path class="l3" d="M386.313 407.249L388.308 407.249"/>
<path class="l3" d="M389.057 414.997L389.306 414.48"/>
<path class="l3" d="M388.308 415.513L389.057 414.997"/>
<path class="l3" d="M385.315 414.48L385.564 414.997"/>
<path class="l3" d="M385.564 414.997L386.313 415.513"/>
<path class="l3" d="M386.313 415.513L388.308 415.513"/>
<path class="l3" d="M385.315 408.282L385.315 414.48"/>
<path class="l3" d="M385.315 413.447L389.306 409.315"/>
<path class="l3" d="M392.3 415.513L394.295 415.513"/>
<path class="l3" d="M393.297 407.249L393.297 415.513"/>
<path class="l3" d="M392.3 409.315L393.297 407.249"/>
<path class="l3" d="M397.289 410.348L399.284 415.513"/>
<path class="l3" d="M399.284 415.513L401.28 410.348"/>
<path class="l3" d="M406.768 412.156L407.017 412.673"/>
<path class="l3" d="M406.269 411.64L406.768 412.156"/>
<path class="l3" d="M403.525 412.673L403.774 412.156"/>
<path class="l3" d="M403.774 412.156L404.273 411.64"/>
<path class="l3" d="M404.273 411.64L405.022 411.381"/>
<path class="l3" d="M405.52 411.381L406.269 411.64"/>
<path class="l3" d="M403.275 414.222L403.525 414.739"/>
<path class="l3" d="M403.525 414.739L404.024 415.255"/>
<path class="l3" d="M407.017 414.739L407.267 414.222"/>
<path class="l3" d="M406.518 415.255L407.017 414.739"/>
<path class="l3" d="M405.77 415.513L406.518 415.255"/>
<path class="l3" d="M404.024 415.255L404.772 415.513"/>
<path class="l3" d="M407.017 412.673L407.267 414.222"/>
<path class="l3" d="M403.275 414.222L403.525 412.673"/>
<path class="l3" d="M404.772 415.513L405.77 415.513"/>
<path class="l3" d="M405.022 411.381L405.52 411.381"/>
<path class="l3" d="M407.017 408.024L407.267 408.541"/>
<path class="l3" d="M406.518 407.508L407.017 408.024"/>
<path class="l3" d="M403.275 408.541L403.525 408.024"/>
<path class="l3" d="M403.525 408.024L404.024 407.508"/>
<path class="l3" d="M404.024 407.508L404.772 407.249"/>
<path class="l3" d="M405.77 407.249L406.518 407.508"/>
<path class="l3" d="M403.525 410.09L403.774 410.607"/>
<path class="l3" d="M403.774 410.607L404.273 411.123"/>
<path class="l3" d="M406.768 410.607L407.017 410.09"/>
<path class="l3" d="M406.269 411.123L406.768 410.607"/>
<path class="l3" d="M405.52 411.381L406.269 411.123"/>
<path class="l3" d="M404.273 411.123L405.022 411.381"/>
<path class="l3" d="M407.017 410.09L407.267 408.541"/>
<path class="l3" d="M403.275 408.541L403.525 410.09"/>
<path class="l3" d="M404.772 407.249L405.77 407.249"/>
<path class="l13" d="M357.846 452.42L359.842 452.42"/>
<path class="l13" d="M358.844 444.156L358.844 452.42"/>
<path class="l13" d="M357.846 446.222L358.844 444.156"/>
<path class="l13" d="M368.822 452.42L372.813 447.255"/>
<path class="l13" d="M368.822 447.255L372.813 452.42"/>
<path class="l13" d="M380.796 444.156L384.787 444.156"/>
<path class="l13" d="M380.796 452.42L383.54 452.42"/>
<path class="l13" d="M380.796 447.772L383.54 447.772"/>
<path class="l13" d="M380.796 444.156L380.796 447.772"/>
<path class="l13" d="M384.787 448.805L384.787 451.387"/>
<path class="l13" d="M384.537 448.288L384.787 448.805"/>
<path class="l13" d="M383.54 447.772L384.537 448.288"/>
<path class="l13" d="M384.537 451.904L384.787 451.387"/>
<path class="l13" d="M383.54 452.42L384.537 451.904"/>
<path class="l13" d="M392.769 452.42L396.76 444.156"/>
<path class="l13" d="M408.734 445.189L408.734 451.387"/>
<path class="l13" d="M404.743 445.189L404.992 444.673"/>
<path class="l13" d="M404.992 444.673L405.741 444.156"/>
<path class="l13" d="M408.484 444.673L408.734 445.189"/>
<path class="l13" d="M407.736 444.156L408.484 444.673"/>
<path class="l13" d="M405.741 444.156L407.736 444.156"/>
<path class="l13" d="M408.484 451.904L408.734 451.387"/>
<path class="l13" d="M407.736 452.42L408.484 451.904"/>
<path class="l13" d="M404.743 451.387L404.992 451.904"/>
<path class="l13" d="M404.992 451.904L405.741 452.42"/>
<path class="l13" d="M405.741 452.42L407.736 452.42"/>
<path class="l13" d="M404.743 445.189L404.743 451.387"/>
<path class="l13" d="M404.743 450.354L408.734 446.222"/>
<path class="l13" d="M413.473 451.387L413.723 451.645"/>
<path class="l13" d="M413.473 452.42L413.723 452.162"/>
<path class="l13" d="M412.725 451.645L412.975 451.387"/>
<path class="l13" d="M412.725 452.162L412.975 452.42"/>
<path class="l13" d="M412.975 452.42L413.473 452.42"/>
<path class="l13" d="M413.723 451.645L413.723 452.162"/>
<path class="l13" d="M412.975 451.387L413.473 451.387"/>
<path class="l13" d="M412.725 451.645L412.725 452.162"/>
<path class="l13" d="M416.716 444.156L420.707 444.156"/>
<path class="l13" d="M418.712 452.42L420.707 444.156"/>
<path class="l13" d="M422.703 444.156L426.694 444.156"/>
<path class="l13" d="M422.703 452.42L425.447 452.42"/>
<path class="l13" d="M422.703 447.772L425.447 447.772"/>
<path class="l13" d="M422.703 444.156L422.703 447.772"/>
<path class="l13" d="M426.694 448.805L426.694 451.387"/>
<path class="l13" d="M426.445 448.288L426.694 448.805"/>
<path class="l13" d="M425.447 447.772L426.445 448.288"/>
<path class="l13" d="M426.445 451.904L426.694 451.387"/>
<path class="l13" d="M425.447 452.42L426.445 451.904"/>
<path class="l3" d="M314.061 301.823L314.061 310.088"/>
<path class="l3" d="M314.061 301.823L316.056 304.922"/>
<path class="l3" d="M316.056 304.922L318.052 301.823"/>
<path class="l3" d="M318.052 301.823L318.052 310.088"/>
<path class="l3" d="M321.045 301.823L323.041 301.823"/>
<path class="l3" d="M324.039 302.856L324.039 304.922"/>
<path class="l3" d="M320.047 309.055L320.047 310.088"/>
<path class="l3" d="M320.047 310.088L324.039 310.088"/>
<path class="l3" d="M320.047 302.856L320.546 302.082"/>
<path class="l3" d="M320.546 302.082L321.045 301.823"/>
<path class="l3" d="M323.041 301.823L323.54 302.082"/>
<path class="l3" d="M323.54 302.082L324.039 302.856"/>
<path class="l3" d="M323.789 305.439L324.039 304.922"/>
<path class="l3" d="M323.29 305.955L323.789 305.439"/>
<path class="l3" d="M320.047 309.055L320.297 308.538"/>
<path class="l3" d="M320.297 308.538L320.796 308.022"/>
<path class="l3" d="M320.796 308.022L323.29 305.955"/>
<path class="l7" d="M347.325 357.324L348.822 357.324"/>
<path class="l7" d="M346.577 358.099L346.577 359.649"/>
<path class="l7" d="M347.325 360.423L348.822 360.423"/>
<path class="l7" d="M349.57 361.198L349.57 362.748"/>
<path class="l7" d="M347.325 363.522L348.822 363.522"/>
<path class="l7" d="M346.951 363.329L347.325 363.522"/>
<path class="l7" d="M346.577 362.748L346.951 363.329"/>
<path class="l7" d="M348.822 363.522L349.196 363.329"/>
<path class="l7" d="M349.196 363.329L349.57 362.748"/>
<path class="l7" d="M349.196 360.617L349.57 361.198"/>
<path class="l7" d="M348.822 360.423L349.196 360.617"/>
<path class="l7" d="M346.951 360.23L347.325 360.423"/>
<path class="l7" d="M346.577 359.649L346.951 360.23"/>
<path class="l7" d="M346.951 357.518L347.325 357.324"/>
<path class="l7" d="M346.577 358.099L346.951 357.518"/>
<path class="l7" d="M348.822 357.324L349.196 357.518"/>
<path class="l7" d="M349.196 357.518L349.57 358.099"/>
<path class="l7" d="M346.577 306.167L346.577 312.365"/>
<path class="l7" d="M346.577 312.365L347.887 312.365"/>
<path class="l7" d="M349.196 307.329L349.57 308.878"/>
<path class="l7" d="M349.196 311.203L349.57 309.653"/>
<path class="l7" d="M349.57 308.878L349.57 309.653"/>
<path class="l7" d="M347.887 312.365L348.261 312.171"/>
<path class="l7" d="M348.261 312.171L348.822 311.784"/>
<path class="l7" d="M348.822 311.784L349.196 311.203"/>
<path class="l7" d="M346.577 306.167L347.887 306.167"/>
<path class="l7" d="M347.887 306.167L348.261 306.36"/>
<path class="l7" d="M348.261 306.36L348.822 306.748"/>
<path class="l7" d="M348.822 306.748L349.196 307.329"/>
<path class="l7" d="M343.642 325.043L343.642 331.241"/>
<path class="l7" d="M343.642 325.043L345.887 325.043"/>
<path class="l7" d="M343.642 328.142L345.7 328.142"/>
<path class="l7" d="M343.642 331.241L345.887 331.241"/>
<path class="l7" d="M346.262 325.236L346.636 325.817"/>
<path class="l7" d="M345.887 325.043L346.262 325.236"/>
<path class="l7" d="M346.262 331.047L346.636 330.466"/>
<path class="l7" d="M345.887 331.241L346.262 331.047"/>
<path class="l7" d="M345.7 328.142L346.075 328.335"/>
<path class="l7" d="M345.7 328.142L346.075 327.948"/>
<path class="l7" d="M346.636 329.304L346.636 330.466"/>
<path class="l7" d="M346.449 328.723L346.636 329.304"/>
<path class="l7" d="M346.075 328.335L346.449 328.723"/>
<path class="l7" d="M346.636 325.817L346.636 326.98"/>
<path class="l7" d="M346.449 327.561L346.636 326.98"/>
<path class="l7" d="M346.075 327.948L346.449 327.561"/>
<path class="l7" d="M303.936 325.817L303.936 330.466"/>
<path class="l7" d="M304.684 331.241L306.181 331.241"/>
<path class="l7" d="M306.929 328.917L306.929 330.466"/>
<path class="l7" d="M305.433 328.917L306.929 328.917"/>
<path class="l7" d="M304.684 325.043L306.181 325.043"/>
<path class="l7" d="M306.555 331.047L306.929 330.466"/>
<path class="l7" d="M306.181 331.241L306.555 331.047"/>
<path class="l7" d="M303.936 330.466L304.31 331.047"/>
<path class="l7" d="M304.31 331.047L304.684 331.241"/>
<path class="l7" d="M303.936 325.817L304.31 325.236"/>
<path class="l7" d="M304.31 325.236L304.684 325.043"/>
<path class="l7" d="M306.555 325.236L306.929 325.817"/>
<path class="l7" d="M306.181 325.043L306.555 325.236"/>
<path class="l3" d="M355.381 316.438L355.381 321.603"/>
<path class="l3" d="M356.379 316.438L358.375 316.438"/>
<path class="l3" d="M359.372 317.471L359.372 321.603"/>
<path class="l3" d="M355.381 317.471L355.88 316.696"/>
<path class="l3" d="M355.88 316.696L356.379 316.438"/>
<path class="l3" d="M358.873 316.696L359.372 317.471"/>
<path class="l3" d="M358.375 316.438L358.873 316.696"/>
<path class="l3" d="M362.366 314.889L362.366 321.603"/>
<path class="l3" d="M363.364 313.339L364.361 313.339"/>
<path class="l3" d="M362.366 318.504L364.361 318.504"/>
<path class="l3" d="M362.366 314.889L362.615 313.856"/>
<path class="l3" d="M362.615 313.856L363.364 313.339"/>
<path class="l3" d="M367.355 318.504L371.346 318.504"/>
<path class="l3" d="M368.353 316.438L370.348 316.438"/>
<path class="l3" d="M368.353 321.603L370.348 321.603"/>
<path class="l3" d="M371.096 321.087L371.346 320.57"/>
<path class="l3" d="M370.348 321.603L371.096 321.087"/>
<path class="l3" d="M371.346 317.988L371.346 318.504"/>
<path class="l3" d="M371.096 316.955L371.346 317.988"/>
<path class="l3" d="M370.348 316.438L371.096 316.955"/>
<path class="l3" d="M367.355 317.988L367.604 316.955"/>
<path class="l3" d="M367.604 316.955L368.353 316.438"/>
<path class="l3" d="M367.355 320.57L367.604 321.087"/>
<path class="l3" d="M367.604 321.087L368.353 321.603"/>
<path class="l3" d="M367.355 317.988L367.355 320.57"/>
<path class="l3" d="M374.339 313.339L374.339 320.57"/>
<path class="l3" d="M375.337 321.603L376.335 321.603"/>
<path class="l3" d="M374.339 315.405L376.335 315.405"/>
<path class="l3" d="M374.589 321.345L375.337 321.603"/>
<path class="l3" d="M374.339 320.57L374.589 321.345"/>
<path class="l3" d="M379.328 321.603L383.319 321.603"/>
<path class="l3" d="M389.306 314.372L389.306 320.57"/>
<path class="l3" d="M385.315 314.372L385.564 313.856"/>
<path class="l3" d="M385.564 313.856L386.313 313.339"/>
<path class="l3" d="M389.057 313.856L389.306 314.372"/>
<path class="l3" d="M388.308 313.339L389.057 313.856"/>
<path class="l3" d="M386.313 313.339L388.308 313.339"/>
<path class="l3" d="M389.057 321.087L389.306 320.57"/>
<path class="l3" d="M388.308 321.603L389.057 321.087"/>
<path class="l3" d="M385.315 320.57L385.564 321.087"/>
<path class="l3" d="M385.564 321.087L386.313 321.603"/>
<path class="l3" d="M386.313 321.603L388.308 321.603"/>
<path class="l3" d="M385.315 314.372L385.315 320.57"/>
<path class="l3" d="M385.315 319.537L389.306 315.405"/>
<path class="l3" d="M392.3 321.603L394.295 321.603"/>
<path class="l3" d="M393.297 313.339L393.297 321.603"/>
<path class="l3" d="M392.3 315.405L393.297 313.339"/>
<path class="l3" d="M397.289 316.438L399.284 321.603"/>
<path class="l3" d="M399.284 321.603L401.28 316.438"/>
<path class="l3" d="M406.768 318.246L407.017 318.762"/>
<path class="l3" d="M406.269 317.729L406.768 318.246"/>
<path class="l3" d="M403.525 318.762L403.774 318.246"/>
<path class="l3" d="M403.774 318.246L404.273 317.729"/>
<path class="l3" d="M404.273 317.729L405.022 317.471"/>
<path class="l3" d="M405.52 317.471L406.269 317.729"/>
<path class="l3" d="M403.275 320.312L403.525 320.829"/>
<path class="l3" d="M403.525 320.829L404.024 321.345"/>
<path class="l3" d="M407.017 320.829L407.267 320.312"/>
<path class="l3" d="M406.518 321.345L407.017 320.829"/>
<path class="l3" d="M405.77 321.603L406.518 321.345"/>
<path class="l3" d="M404.024 321.345L404.772 321.603"/>
<path class="l3" d="M407.017 318.762L407.267 320.312"/>
<path class="l3" d="M403.275 320.312L403.525 318.762"/>
<path class="l3" d="M404.772 321.603L405.77 321.603"/>
<path class="l3" d="M405.022 317.471L405.52 317.471"/>
<path class="l3" d="M407.017 314.114L407.267 314.63"/>
<path class="l3" d="M406.518 313.597L407.017 314.114"/>
<path class="l3" d="M403.275 314.63L403.525 314.114"/>
<path class="l3" d="M403.525 314.114L404.024 313.597"/>
<path class="l3" d="M404.024 313.597L404.772 313.339"/>
<path class="l3" d="M405.77 313.339L406.518 313.597"/>
<path class="l3" d="M403.525 316.18L403.774 316.696"/>
<path class="l3" d="M403.774 316.696L404.273 317.213"/>
<path class="l3" d="M406.768 316.696L407.017 316.18"/>
<path class="l3" d="M406.269 317.213L406.768 316.696"/>
<path class="l3" d="M405.52 317.471L406.269 317.213"/>
<path class="l3" d="M404.273 317.213L405.022 317.471"/>
<path class="l3" d="M407.017 316.18L407.267 314.63"/>
<path class="l3" d="M403.275 314.63L403.525 316.18"/>
<path class="l3" d="M404.772 313.339L405.77 313.339"/>
<path class="l13" d="M357.846 358.51L359.842 358.51"/>
<path class="l13" d="M358.844 350.246L358.844 358.51"/>
<path class="l13" d="M357.846 352.312L358.844 350.246"/>
<path class="l13" d="M368.822 358.51L372.813 353.345"/>
<path class="l13" d="M368.822 353.345L372.813 358.51"/>
<path class="l13" d="M380.796 350.246L384.787 350.246"/>
<path class="l13" d="M380.796 358.51L383.54 358.51"/>
<path class="l13" d="M380.796 353.861L383.54 353.861"/>
<path class="l13" d="M380.796 350.246L380.796 353.861"/>
<path class="l13" d="M384.787 354.894L384.787 357.477"/>
<path class="l13" d="M384.537 354.378L384.787 354.894"/>
<path class="l13" d="M383.54 353.861L384.537 354.378"/>
<path class="l13" d="M384.537 357.993L384.787 357.477"/>
<path class="l13" d="M383.54 358.51L384.537 357.993"/>
<path class="l13" d="M392.769 358.51L396.76 350.246"/>
<path class="l13" d="M408.734 351.279L408.734 357.477"/>
<path class="l13" d="M404.743 351.279L404.992 350.762"/>
<path class="l13" d="M404.992 350.762L405.741 350.246"/>
<path class="l13" d="M408.484 350.762L408.734 351.279"/>
<path class="l13" d="M407.736 350.246L408.484 350.762"/>
<path class="l13" d="M405.741 350.246L407.736 350.246"/>
<path class="l13" d="M408.484 357.993L408.734 357.477"/>
<path class="l13" d="M407.736 358.51L408.484 357.993"/>
<path class="l13" d="M404.743 357.477L404.992 357.993"/>
<path class="l13" d="M404.992 357.993L405.741 358.51"/>
<path class="l13" d="M405.741 358.51L407.736 358.51"/>
<path class="l13" d="M404.743 351.279L404.743 357.477"/>
<path class="l13" d="M404.743 356.444L408.734 352.312"/>
<path class="l13" d="M413.473 357.477L413.723 357.735"/>
<path class="l13" d="M413.473 358.51L413.723 358.252"/>
<path class="l13" d="M412.725 357.735L412.975 357.477"/>
<path class="l13" d="M412.725 358.252L412.975 358.51"/>
<path class="l13" d="M412.975 358.51L413.473 358.51"/>
<path class="l13" d="M413.723 357.735L413.723 358.252"/>
<path class="l13" d="M412.975 357.477L413.473 357.477"/>
<path class="l13" d="M412.725 357.735L412.725 358.252"/>
<path class="l13" d="M417.714 358.51L419.71 358.51"/>
<path class="l13" d="M418.712 350.246L418.712 358.51"/>
<path class="l13" d="M417.714 352.312L418.712 350.246"/>
<path class="l13" d="M422.703 350.246L426.694 350.246"/>
<path class="l13" d="M422.703 358.51L425.447 358.51"/>
<path class="l13" d="M422.703 353.861L425.447 353.861"/>
<path class="l13" d="M422.703 350.246L422.703 353.861"/>
<path class="l13" d="M426.694 354.894L426.694 357.477"/>
<path class="l13" d="M426.445 354.378L426.694 354.894"/>
<path class="l13" d="M425.447 353.861L426.445 354.378"/>
<path class="l13" d="M426.445 357.993L426.694 357.477"/>
<path class="l13" d="M425.447 358.51L426.445 357.993"/>
<path class="l3" d="M182.234 189.648L182.234 202.044"/>
<path class="l3" d="M188.221 195.846L188.221 200.494"/>
<path class="l3" d="M182.234 195.846L182.608 195.071"/>
<path class="l3" d="M182.608 195.071L184.105 194.296"/>
<path class="l3" d="M182.608 201.269L184.105 202.044"/>
<path class="l3" d="M182.234 200.494L182.608 201.269"/>
<path class="l3" d="M184.105 194.296L186.35 194.296"/>
<path class="l3" d="M184.105 202.044L186.35 202.044"/>
<path class="l3" d="M186.35 194.296L187.847 195.071"/>
<path class="l3" d="M187.847 195.071L188.221 195.846"/>
<path class="l3" d="M187.847 201.269L188.221 200.494"/>
<path class="l3" d="M186.35 202.044L187.847 201.269"/>
<path class="l3" d="M197.201 195.846L197.201 202.044"/>
<path class="l3" d="M192.711 202.044L195.705 202.044"/>
<path class="l3" d="M191.214 198.945L191.214 200.494"/>
<path class="l3" d="M192.711 197.395L195.705 197.395"/>
<path class="l3" d="M192.711 194.296L195.705 194.296"/>
<path class="l3" d="M191.589 201.269L192.711 202.044"/>
<path class="l3" d="M191.214 200.494L191.589 201.269"/>
<path class="l3" d="M191.589 198.17L192.711 197.395"/>
<path class="l3" d="M191.214 198.945L191.589 198.17"/>
<path class="l3" d="M195.705 202.044L196.827 201.269"/>
<path class="l3" d="M196.827 201.269L197.201 200.494"/>
<path class="l3" d="M195.705 197.395L196.827 198.17"/>
<path class="l3" d="M196.827 198.17L197.201 198.945"/>
<path class="l3" d="M196.827 195.071L197.201 195.846"/>
<path class="l3" d="M195.705 194.296L196.827 195.071"/>
<path class="l3" d="M200.195 194.296L200.195 202.044"/>
<path class="l3" d="M201.691 194.296L204.685 194.296"/>
<path class="l3" d="M206.181 195.846L206.181 202.044"/>
<path class="l3" d="M200.195 195.846L200.943 194.684"/>
<path class="l3" d="M200.943 194.684L201.691 194.296"/>
<path class="l3" d="M205.433 194.684L206.181 195.846"/>
<path class="l3" d="M204.685 194.296L205.433 194.684"/>
<path class="l3" d="M215.162 189.648L215.162 202.044"/>
<path class="l3" d="M211.046 194.296L213.291 194.296"/>
<path class="l3" d="M209.175 195.846L209.175 200.494"/>
<path class="l3" d="M211.046 202.044L213.291 202.044"/>
<path class="l3" d="M209.175 195.846L209.549 195.071"/>
<path class="l3" d="M209.549 195.071L211.046 194.296"/>
<path class="l3" d="M211.046 194.296L213.291 194.296"/>
<path class="l3" d="M213.291 194.296L214.787 195.071"/>
<path class="l3" d="M214.787 195.071L215.162 195.846"/>
<path class="l3" d="M214.787 201.269L215.162 200.494"/>
<path class="l3" d="M213.291 202.044L214.787 201.269"/>
<path class="l3" d="M209.549 201.269L211.046 202.044"/>
<path class="l3" d="M209.175 200.494L209.549 201.269"/>
<path class="l3" d="M218.155 196.621L218.155 200.494"/>
<path class="l3" d="M224.142 196.621L224.142 205.143"/>
<path class="l3" d="M219.652 206.692L222.645 206.692"/>
<path class="l3" d="M219.652 194.296L222.645 194.296"/>
<path class="l3" d="M219.652 202.044L222.645 202.044"/>
<path class="l3" d="M223.768 201.269L224.142 200.494"/>
<path class="l3" d="M222.645 202.044L223.768 201.269"/>
<path class="l3" d="M223.768 195.071L224.142 196.621"/>
<path class="l3" d="M222.645 194.296L223.768 195.071"/>
<path class="l3" d="M218.155 196.621L218.529 195.071"/>
<path class="l3" d="M218.529 195.071L219.652 194.296"/>
<path class="l3" d="M218.155 200.494L218.529 201.269"/>
<path class="l3" d="M218.529 201.269L219.652 202.044"/>
<path class="l3" d="M223.768 205.918L224.142 205.143"/>
<path class="l3" d="M222.645 206.692L223.768 205.918"/>
<path class="l3" d="M218.155 205.143L218.529 205.918"/>
<path class="l3" d="M218.529 205.918L219.652 206.692"/>
<path class="l3" d="M233.122 195.846L233.122 202.044"/>
<path class="l3" d="M228.632 202.044L231.625 202.044"/>
<path class="l3" d="M227.135 198.945L227.135 200.494"/>
<path class="l3" d="M228.632 197.395L231.625 197.395"/>
<path class="l3" d="M228.632 194.296L231.625 194.296"/>
<path class="l3" d="M227.509 201.269L228.632 202.044"/>
<path class="l3" d="M227.135 200.494L227.509 201.269"/>
<path class="l3" d="M227.509 198.17L228.632 197.395"/>
<path class="l3" d="M227.135 198.945L227.509 198.17"/>
<path class="l3" d="M231.625 202.044L232.748 201.269"/>
<path class="l3" d="M232.748 201.269L233.122 200.494"/>
<path class="l3" d="M231.625 197.395L232.748 198.17"/>
<path class="l3" d="M232.748 198.17L233.122 198.945"/>
<path class="l3" d="M232.748 195.071L233.122 195.846"/>
<path class="l3" d="M231.625 194.296L232.748 195.071"/>
<path class="l3" d="M236.115 195.846L236.115 206.692"/>
<path class="l3" d="M237.986 194.296L240.231 194.296"/>
<path class="l3" d="M237.986 202.044L240.231 202.044"/>
<path class="l3" d="M236.115 195.846L236.489 195.071"/>
<path class="l3" d="M236.489 195.071L237.986 194.296"/>
<path class="l3" d="M237.986 194.296L240.231 194.296"/>
<path class="l3" d="M240.231 194.296L241.728 195.071"/>
<path class="l3" d="M241.728 195.071L242.102 195.846"/>
<path class="l3" d="M241.728 201.269L242.102 200.494"/>
<path class="l3" d="M240.231 202.044L241.728 201.269"/>
<path class="l3" d="M236.489 201.269L237.986 202.044"/>
<path class="l3" d="M236.115 200.494L236.489 201.269"/>
<path class="l3" d="M242.102 195.846L242.102 200.494"/>
<path class="l3" d="M245.095 202.044L251.082 202.044"/>
<path class="l3" d="M254.076 189.648L254.076 202.044"/>
<path class="l3" d="M260.062 195.846L260.062 200.494"/>
<path class="l3" d="M254.076 195.846L254.45 195.071"/>
<path class="l3" d="M254.45 195.071L255.946 194.296"/>
<path class="l3" d="M254.45 201.269L255.946 202.044"/>
<path class="l3" d="M254.076 200.494L254.45 201.269"/>
<path class="l3" d="M255.946 194.296L258.191 194.296"/>
<path class="l3" d="M255.946 202.044L258.191 202.044"/>
<path class="l3" d="M258.191 194.296L259.688 195.071"/>
<path class="l3" d="M259.688 195.071L260.062 195.846"/>
<path class="l3" d="M259.688 201.269L260.062 200.494"/>
<path class="l3" d="M258.191 202.044L259.688 201.269"/>
<path class="l3" d="M263.056 194.296L263.056 202.044"/>
<path class="l3" d="M263.056 195.846L263.804 194.684"/>
<path class="l3" d="M263.804 194.684L264.552 194.296"/>
<path class="l3" d="M266.049 195.846L266.797 194.684"/>
<path class="l3" d="M266.797 194.684L267.546 194.296"/>
<path class="l3" d="M269.042 195.303L269.042 202.044"/>
<path class="l3" d="M266.049 195.303L266.049 202.044"/>
<path class="l3" d="M267.546 194.296L268.668 194.606"/>
<path class="l3" d="M264.552 194.296L265.675 194.606"/>
<path class="l3" d="M265.675 194.606L266.049 195.303"/>
<path class="l3" d="M268.668 194.606L269.042 195.303"/>
<path class="l3" d="M273.158 194.296L273.158 202.044"/>
<path class="l3" d="M274.655 194.296L276.152 194.296"/>
<path class="l3" d="M277.274 195.071L277.648 195.846"/>
<path class="l3" d="M276.152 194.296L277.274 195.071"/>
<path class="l3" d="M273.533 195.071L274.655 194.296"/>
<path class="l3" d="M273.158 195.846L273.533 195.071"/>
<path class="l3" d="M185.169 225.568L189.16 220.403"/>
<path class="l3" d="M185.169 220.403L189.16 225.568"/>
<path class="l3" d="M192.154 225.568L194.149 225.568"/>
<path class="l3" d="M193.151 217.304L193.151 225.568"/>
<path class="l3" d="M192.154 219.37L193.151 217.304"/>
<path class="l3" d="M121.427 122.971L123.423 128.137"/>
<path class="l3" d="M123.423 128.137L125.419 122.971"/>
<path class="l3" d="M131.405 119.872L131.405 128.137"/>
<path class="l3" d="M128.661 122.971L130.158 122.971"/>
<path class="l3" d="M127.414 124.004L127.414 127.104"/>
<path class="l3" d="M128.661 128.137L130.158 128.137"/>
<path class="l3" d="M127.414 124.004L127.664 123.488"/>
<path class="l3" d="M127.664 123.488L128.661 122.971"/>
<path class="l3" d="M128.661 122.971L130.158 122.971"/>
<path class="l3" d="M130.158 122.971L131.156 123.488"/>
<path class="l3" d="M131.156 123.488L131.405 124.004"/>
<path class="l3" d="M131.156 127.62L131.405 127.104"/>
<path class="l3" d="M130.158 128.137L131.156 127.62"/>
<path class="l3" d="M127.664 127.62L128.661 128.137"/>
<path class="l3" d="M127.414 127.104L127.664 127.62"/>
<path class="l3" d="M137.392 119.872L137.392 128.137"/>
<path class="l3" d="M134.648 122.971L136.145 122.971"/>
<path class="l3" d="M133.401 124.004L133.401 127.104"/>
<path class="l3" d="M134.648 128.137L136.145 128.137"/>
<path class="l3" d="M133.401 124.004L133.65 123.488"/>
<path class="l3" d="M133.65 123.488L134.648 122.971"/>
<path class="l3" d="M134.648 122.971L136.145 122.971"/>
<path class="l3" d="M136.145 122.971L137.143 123.488"/>
<path class="l3" d="M137.143 123.488L137.392 124.004"/>
<path class="l3" d="M137.143 127.62L137.392 127.104"/>
<path class="l3" d="M136.145 128.137L137.143 127.62"/>
<path class="l3" d="M133.65 127.62L134.648 128.137"/>
<path class="l3" d="M133.401 127.104L133.65 127.62"/>
<path class="l3" d="M56.0424 149.689L60.0336 149.689"/>
<path class="l3" d="M57.0402 147.623L59.0358 147.623"/>
<path class="l3" d="M57.0402 152.788L59.0358 152.788"/>
<path class="l3" d="M59.7842 152.271L60.0336 151.755"/>
<path class="l3" d="M59.0358 152.788L59.7842 152.271"/>
<path class="l3" d="M60.0336 149.172L60.0336 149.689"/>
<path class="l3" d="M59.7842 148.139L60.0336 149.172"/>
<path class="l3" d="M59.0358 147.623L59.7842 148.139"/>
<path class="l3" d="M56.0424 149.172L56.2919 148.139"/>
<path class="l3" d="M56.2919 148.139L57.0402 147.623"/>
<path class="l3" d="M56.0424 151.755L56.2919 152.271"/>
<path class="l3" d="M56.2919 152.271L57.0402 152.788"/>
<path class="l3" d="M56.0424 149.172L56.0424 151.755"/>
<path class="l3" d="M62.0292 147.623L62.0292 152.788"/>
<path class="l3" d="M63.027 147.623L65.0226 147.623"/>
<path class="l3" d="M66.0204 148.656L66.0204 152.788"/>
<path class="l3" d="M62.0292 148.656L62.5281 147.881"/>
<path class="l3" d="M62.5281 147.881L63.027 147.623"/>
<path class="l3" d="M65.5215 147.881L66.0204 148.656"/>
<path class="l3" d="M65.0226 147.623L65.5215 147.881"/>
<path class="l3" d="M178.713 144.524L178.713 152.788"/>
<path class="l3" d="M182.704 148.656L182.704 151.755"/>
<path class="l3" d="M178.713 148.656L178.962 148.139"/>
<path class="l3" d="M178.962 148.139L179.96 147.623"/>
<path class="l3" d="M178.962 152.271L179.96 152.788"/>
<path class="l3" d="M178.713 151.755L178.962 152.271"/>
<path class="l3" d="M179.96 147.623L181.457 147.623"/>
<path class="l3" d="M179.96 152.788L181.457 152.788"/>
<path class="l3" d="M181.457 147.623L182.454 148.139"/>
<path class="l3" d="M182.454 148.139L182.704 148.656"/>
<path class="l3" d="M182.454 152.271L182.704 151.755"/>
<path class="l3" d="M181.457 152.788L182.454 152.271"/>
<path class="l3" d="M186.695 147.623L186.695 152.788"/>
<path class="l3" d="M186.446 145.557L186.446 146.073"/>
<path class="l3" d="M186.446 146.073L186.944 146.073"/>
<path class="l3" d="M186.944 145.557L186.944 146.073"/>
<path class="l3" d="M186.446 145.557L186.944 145.557"/>
<path class="l3" d="M194.677 148.656L194.677 152.788"/>
<path class="l3" d="M191.684 152.788L193.68 152.788"/>
<path class="l3" d="M190.686 150.722L190.686 151.755"/>
<path class="l3" d="M191.684 149.689L193.68 149.689"/>
<path class="l3" d="M191.684 147.623L193.68 147.623"/>
<path class="l3" d="M190.936 152.271L191.684 152.788"/>
<path class="l3" d="M190.686 151.755L190.936 152.271"/>
<path class="l3" d="M190.936 150.205L191.684 149.689"/>
<path class="l3" d="M190.686 150.722L190.936 150.205"/>
<path class="l3" d="M193.68 152.788L194.428 152.271"/>
<path class="l3" d="M194.428 152.271L194.677 151.755"/>
<path class="l3" d="M193.68 149.689L194.428 150.205"/>
<path class="l3" d="M194.428 150.205L194.677 150.722"/>
<path class="l3" d="M194.428 148.139L194.677 148.656"/>
<path class="l3" d="M193.68 147.623L194.428 148.139"/>
<path class="l3" d="M197.92 147.623L199.417 147.623"/>
<path class="l3" d="M196.673 148.656L196.673 149.172"/>
<path class="l3" d="M197.92 150.205L199.417 150.205"/>
<path class="l3" d="M200.664 151.238L200.664 151.755"/>
<path class="l3" d="M197.92 152.788L199.417 152.788"/>
<path class="l3" d="M200.415 148.139L200.664 148.656"/>
<path class="l3" d="M199.417 147.623L200.415 148.139"/>
<path class="l3" d="M196.673 148.656L196.922 148.139"/>
<path class="l3" d="M196.922 148.139L197.92 147.623"/>
<path class="l3" d="M196.673 149.172L196.922 149.689"/>
<path class="l3" d="M196.922 149.689L197.92 150.205"/>
<path class="l3" d="M200.664 151.238L200.664 151.755"/>
<path class="l3" d="M200.415 150.722L200.664 151.238"/>
<path class="l3" d="M199.417 150.205L200.415 150.722"/>
<path class="l3" d="M200.415 152.271L200.664 151.755"/>
<path class="l3" d="M199.417 152.788L200.415 152.271"/>
<path class="l3" d="M196.673 151.755L196.922 152.271"/>
<path class="l3" d="M196.922 152.271L197.92 152.788"/>
<path class="l3" d="M202.66 147.623L204.655 152.788"/>
<path class="l3" d="M204.655 152.788L206.651 147.623"/>
<path class="l3" d="M115.91 169.927L117.906 175.092"/>
<path class="l3" d="M117.906 175.092L119.901 169.927"/>
<path class="l3" d="M123.144 169.927L124.641 169.927"/>
<path class="l3" d="M121.897 170.96L121.897 171.476"/>
<path class="l3" d="M123.144 172.509L124.641 172.509"/>
<path class="l3" d="M125.888 173.542L125.888 174.059"/>
<path class="l3" d="M123.144 175.092L124.641 175.092"/>
<path class="l3" d="M125.639 170.443L125.888 170.96"/>
<path class="l3" d="M124.641 169.927L125.639 170.443"/>
<path class="l3" d="M121.897 170.96L122.146 170.443"/>
<path class="l3" d="M122.146 170.443L123.144 169.927"/>
<path class="l3" d="M121.897 171.476L122.146 171.993"/>
<path class="l3" d="M122.146 171.993L123.144 172.509"/>
<path class="l3" d="M125.888 173.542L125.888 174.059"/>
<path class="l3" d="M125.639 173.026L125.888 173.542"/>
<path class="l3" d="M124.641 172.509L125.639 173.026"/>
<path class="l3" d="M125.639 174.575L125.888 174.059"/>
<path class="l3" d="M124.641 175.092L125.639 174.575"/>
<path class="l3" d="M121.897 174.059L122.146 174.575"/>
<path class="l3" d="M122.146 174.575L123.144 175.092"/>
<path class="l3" d="M129.131 169.927L130.628 169.927"/>
<path class="l3" d="M127.884 170.96L127.884 171.476"/>
<path class="l3" d="M129.131 172.509L130.628 172.509"/>
<path class="l3" d="M131.875 173.542L131.875 174.059"/>
<path class="l3" d="M129.131 175.092L130.628 175.092"/>
<path class="l3" d="M131.625 170.443L131.875 170.96"/>
<path class="l3" d="M130.628 169.927L131.625 170.443"/>
<path class="l3" d="M127.884 170.96L128.133 170.443"/>
<path class="l3" d="M128.133 170.443L129.131 169.927"/>
<path class="l3" d="M127.884 171.476L128.133 171.993"/>
<path class="l3" d="M128.133 171.993L129.131 172.509"/>
<path class="l3" d="M131.875 173.542L131.875 174.059"/>
<path class="l3" d="M131.625 173.026L131.875 173.542"/>
<path class="l3" d="M130.628 172.509L131.625 173.026"/>
<path class="l3" d="M131.625 174.575L131.875 174.059"/>
<path class="l3" d="M130.628 175.092L131.625 174.575"/>
<path class="l3" d="M127.884 174.059L128.133 174.575"/>
<path class="l3" d="M128.133 174.575L129.131 175.092"/>
<path class="l3" d="M278.844 114.003L278.844 122.267"/>
<path class="l3" d="M278.844 114.003L280.84 117.102"/>
<path class="l3" d="M280.84 117.102L282.836 114.003"/>
<path class="l3" d="M282.836 114.003L282.836 122.267"/>
<path class="l3" d="M285.829 114.003L287.575 114.003"/>
<path class="l3" d="M288.822 115.036L288.822 117.102"/>
<path class="l3" d="M285.829 118.135L287.575 118.135"/>
<path class="l3" d="M288.822 119.168L288.822 121.234"/>
<path class="l3" d="M285.829 122.267L287.575 122.267"/>
<path class="l3" d="M284.831 114.52L285.829 114.003"/>
<path class="l3" d="M284.831 121.751L285.829 122.267"/>
<path class="l3" d="M288.573 117.619L288.822 117.102"/>
<path class="l3" d="M287.575 118.135L288.573 117.619"/>
<path class="l3" d="M288.573 118.652L288.822 119.168"/>
<path class="l3" d="M287.575 118.135L288.573 118.652"/>
<path class="l3" d="M288.573 114.52L288.822 115.036"/>
<path class="l3" d="M287.575 114.003L288.573 114.52"/>
<path class="l3" d="M288.573 121.751L288.822 121.234"/>
<path class="l3" d="M287.575 122.267L288.573 121.751"/>
<path class="l7" d="M311.361 169.504L311.361 175.702"/>
<path class="l7" d="M311.361 175.702L312.67 175.702"/>
<path class="l7" d="M313.98 170.666L314.354 172.216"/>
<path class="l7" d="M313.98 174.54L314.354 172.99"/>
<path class="l7" d="M314.354 172.216L314.354 172.99"/>
<path class="l7" d="M312.67 175.702L313.045 175.508"/>
<path class="l7" d="M313.045 175.508L313.606 175.121"/>
<path class="l7" d="M313.606 175.121L313.98 174.54"/>
<path class="l7" d="M311.361 169.504L312.67 169.504"/>
<path class="l7" d="M312.67 169.504L313.045 169.698"/>
<path class="l7" d="M313.045 169.698L313.606 170.085"/>
<path class="l7" d="M313.606 170.085L313.98 170.666"/>
<path class="l7" d="M312.109 118.346L313.606 118.346"/>
<path class="l7" d="M311.361 119.121L311.361 120.671"/>
<path class="l7" d="M312.109 121.445L313.606 121.445"/>
<path class="l7" d="M314.354 122.22L314.354 123.77"/>
<path class="l7" d="M312.109 124.544L313.606 124.544"/>
<path class="l7" d="M311.735 124.351L312.109 124.544"/>
<path class="l7" d="M311.361 123.77L311.735 124.351"/>
<path class="l7" d="M313.606 124.544L313.98 124.351"/>
<path class="l7" d="M313.98 124.351L314.354 123.77"/>
<path class="l7" d="M313.98 121.639L314.354 122.22"/>
<path class="l7" d="M313.606 121.445L313.98 121.639"/>
<path class="l7" d="M311.735 121.252L312.109 121.445"/>
<path class="l7" d="M311.361 120.671L311.735 121.252"/>
<path class="l7" d="M311.735 118.54L312.109 118.346"/>
<path class="l7" d="M311.361 119.121L311.735 118.54"/>
<path class="l7" d="M313.606 118.346L313.98 118.54"/>
<path class="l7" d="M313.98 118.54L314.354 119.121"/>
<path class="l7" d="M308.426 137.222L308.426 143.42"/>
<path class="l7" d="M308.426 137.222L310.671 137.222"/>
<path class="l7" d="M308.426 140.321L310.484 140.321"/>
<path class="l7" d="M308.426 143.42L310.671 143.42"/>
<path class="l7" d="M311.045 137.416L311.419 137.997"/>
<path class="l7" d="M310.671 137.222L311.045 137.416"/>
<path class="l7" d="M311.045 143.227L311.419 142.646"/>
<path class="l7" d="M310.671 143.42L311.045 143.227"/>
<path class="l7" d="M310.484 140.321L310.858 140.515"/>
<path class="l7" d="M310.484 140.321L310.858 140.128"/>
<path class="l7" d="M311.419 141.484L311.419 142.646"/>
<path class="l7" d="M311.232 140.902L311.419 141.484"/>
<path class="l7" d="M310.858 140.515L311.232 140.902"/>
<path class="l7" d="M311.419 137.997L311.419 139.159"/>
<path class="l7" d="M311.232 139.74L311.419 139.159"/>
<path class="l7" d="M310.858 140.128L311.232 139.74"/>
<path class="l4" d="M277.348 169.504L277.348 175.702"/>
<path class="l4" d="M277.348 175.702L280.341 175.702"/>
<path class="l4" d="M281.838 169.504L283.334 175.702"/>
<path class="l4" d="M283.334 175.702L284.831 169.504"/>
<path class="l4" d="M287.825 169.504L287.825 175.702"/>
<path class="l4" d="M286.328 169.504L289.321 169.504"/>
<path class="l7" d="M268.72 137.997L268.72 142.646"/>
<path class="l7" d="M269.468 143.42L270.965 143.42"/>
<path class="l7" d="M271.713 141.096L271.713 142.646"/>
<path class="l7" d="M270.216 141.096L271.713 141.096"/>
<path class="l7" d="M269.468 137.222L270.965 137.222"/>
<path class="l7" d="M271.339 143.227L271.713 142.646"/>
<path class="l7" d="M270.965 143.42L271.339 143.227"/>
<path class="l7" d="M268.72 142.646L269.094 143.227"/>
<path class="l7" d="M269.094 143.227L269.468 143.42"/>
<path class="l7" d="M268.72 137.997L269.094 137.416"/>
<path class="l7" d="M269.094 137.416L269.468 137.222"/>
<path class="l7" d="M271.339 137.416L271.713 137.997"/>
<path class="l7" d="M270.965 137.222L271.339 137.416"/>
<path class="l3" d="M320.165 129.651L320.165 136.882"/>
<path class="l3" d="M321.412 128.618L322.909 128.618"/>
<path class="l3" d="M321.412 133.783L322.909 133.783"/>
<path class="l3" d="M320.165 129.651L320.414 129.134"/>
<path class="l3" d="M320.414 129.134L321.412 128.618"/>
<path class="l3" d="M321.412 128.618L322.909 128.618"/>
<path class="l3" d="M322.909 128.618L323.907 129.134"/>
<path class="l3" d="M323.907 129.134L324.156 129.651"/>
<path class="l3" d="M323.907 133.266L324.156 132.75"/>
<path class="l3" d="M322.909 133.783L323.907 133.266"/>
<path class="l3" d="M320.414 133.266L321.412 133.783"/>
<path class="l3" d="M320.165 132.75L320.414 133.266"/>
<path class="l3" d="M324.156 129.651L324.156 132.75"/>
<path class="l3" d="M327.149 127.068L327.149 133.783"/>
<path class="l3" d="M328.147 125.519L329.145 125.519"/>
<path class="l3" d="M327.149 130.684L329.145 130.684"/>
<path class="l3" d="M327.149 127.068L327.399 126.035"/>
<path class="l3" d="M327.399 126.035L328.147 125.519"/>
<path class="l3" d="M332.138 130.684L336.13 130.684"/>
<path class="l3" d="M333.136 128.618L335.132 128.618"/>
<path class="l3" d="M333.136 133.783L335.132 133.783"/>
<path class="l3" d="M335.88 133.266L336.13 132.75"/>
<path class="l3" d="M335.132 133.783L335.88 133.266"/>
<path class="l3" d="M336.13 130.167L336.13 130.684"/>
<path class="l3" d="M335.88 129.134L336.13 130.167"/>
<path class="l3" d="M335.132 128.618L335.88 129.134"/>
<path class="l3" d="M332.138 130.167L332.388 129.134"/>
<path class="l3" d="M332.388 129.134L333.136 128.618"/>
<path class="l3" d="M332.138 132.75L332.388 133.266"/>
<path class="l3" d="M332.388 133.266L333.136 133.783"/>
<path class="l3" d="M332.138 130.167L332.138 132.75"/>
<path class="l3" d="M339.123 125.519L339.123 132.75"/>
<path class="l3" d="M340.121 133.783L341.119 133.783"/>
<path class="l3" d="M339.123 127.585L341.119 127.585"/>
<path class="l3" d="M339.372 133.525L340.121 133.783"/>
<path class="l3" d="M339.123 132.75L339.372 133.525"/>
<path class="l3" d="M344.112 133.783L348.103 133.783"/>
<path class="l3" d="M354.09 126.552L354.09 132.75"/>
<path class="l3" d="M350.099 126.552L350.348 126.035"/>
<path class="l3" d="M350.348 126.035L351.097 125.519"/>
<path class="l3" d="M353.84 126.035L354.09 126.552"/>
<path class="l3" d="M353.092 125.519L353.84 126.035"/>
<path class="l3" d="M351.097 125.519L353.092 125.519"/>
<path class="l3" d="M353.84 133.266L354.09 132.75"/>
<path class="l3" d="M353.092 133.783L353.84 133.266"/>
<path class="l3" d="M350.099 132.75L350.348 133.266"/>
<path class="l3" d="M350.348 133.266L351.097 133.783"/>
<path class="l3" d="M351.097 133.783L353.092 133.783"/>
<path class="l3" d="M350.099 126.552L350.099 132.75"/>
<path class="l3" d="M350.099 131.717L354.09 127.585"/>
<path class="l3" d="M357.083 133.783L359.079 133.783"/>
<path class="l3" d="M358.081 125.519L358.081 133.783"/>
<path class="l3" d="M357.083 127.585L358.081 125.519"/>
<path class="l3" d="M362.072 128.618L364.068 133.783"/>
<path class="l3" d="M364.068 133.783L366.063 128.618"/>
<path class="l3" d="M371.551 130.426L371.801 130.942"/>
<path class="l3" d="M371.052 129.909L371.551 130.426"/>
<path class="l3" d="M368.308 130.942L368.558 130.426"/>
<path class="l3" d="M368.558 130.426L369.057 129.909"/>
<path class="l3" d="M369.057 129.909L369.805 129.651"/>
<path class="l3" d="M370.304 129.651L371.052 129.909"/>
<path class="l3" d="M368.059 132.492L368.308 133.008"/>
<path class="l3" d="M368.308 133.008L368.807 133.525"/>
<path class="l3" d="M371.801 133.008L372.05 132.492"/>
<path class="l3" d="M371.302 133.525L371.801 133.008"/>
<path class="l3" d="M370.554 133.783L371.302 133.525"/>
<path class="l3" d="M368.807 133.525L369.556 133.783"/>
<path class="l3" d="M371.801 130.942L372.05 132.492"/>
<path class="l3" d="M368.059 132.492L368.308 130.942"/>
<path class="l3" d="M369.556 133.783L370.554 133.783"/>
<path class="l3" d="M369.805 129.651L370.304 129.651"/>
<path class="l3" d="M371.801 126.294L372.05 126.81"/>
<path class="l3" d="M371.302 125.777L371.801 126.294"/>
<path class="l3" d="M368.059 126.81L368.308 126.294"/>
<path class="l3" d="M368.308 126.294L368.807 125.777"/>
<path class="l3" d="M368.807 125.777L369.556 125.519"/>
<path class="l3" d="M370.554 125.519L371.302 125.777"/>
<path class="l3" d="M368.308 128.36L368.558 128.876"/>
<path class="l3" d="M368.558 128.876L369.057 129.393"/>
<path class="l3" d="M371.551 128.876L371.801 128.36"/>
<path class="l3" d="M371.052 129.393L371.551 128.876"/>
<path class="l3" d="M370.304 129.651L371.052 129.393"/>
<path class="l3" d="M369.057 129.393L369.805 129.651"/>
<path class="l3" d="M371.801 128.36L372.05 126.81"/>
<path class="l3" d="M368.059 126.81L368.308 128.36"/>
<path class="l3" d="M369.556 125.519L370.554 125.519"/>
<path class="l3" d="M374.046 133.783L378.037 133.783"/>
<path class="l3" d="M382.028 125.519L382.028 133.783"/>
<path class="l3" d="M381.03 125.519L382.028 125.519"/>
<path class="l3" d="M386.019 128.618L388.015 133.783"/>
<path class="l3" d="M388.015 133.783L390.011 128.618"/>
<path class="l3" d="M393.004 125.519L393.004 132.75"/>
<path class="l3" d="M394.002 133.783L395 133.783"/>
<path class="l3" d="M393.004 127.585L395 127.585"/>
<path class="l3" d="M393.253 133.525L394.002 133.783"/>
<path class="l3" d="M393.004 132.75L393.253 133.525"/>
<path class="l13" d="M322.63 170.69L324.626 170.69"/>
<path class="l13" d="M323.628 162.426L323.628 170.69"/>
<path class="l13" d="M322.63 164.492L323.628 162.426"/>
<path class="l13" d="M333.606 170.69L337.597 165.525"/>
<path class="l13" d="M333.606 165.525L337.597 170.69"/>
<path class="l13" d="M345.579 162.426L349.57 162.426"/>
<path class="l13" d="M345.579 170.69L348.323 170.69"/>
<path class="l13" d="M345.579 166.041L348.323 166.041"/>
<path class="l13" d="M345.579 162.426L345.579 166.041"/>
<path class="l13" d="M349.57 167.074L349.57 169.657"/>
<path class="l13" d="M349.321 166.558L349.57 167.074"/>
<path class="l13" d="M348.323 166.041L349.321 166.558"/>
<path class="l13" d="M349.321 170.173L349.57 169.657"/>
<path class="l13" d="M348.323 170.69L349.321 170.173"/>
<path class="l13" d="M357.553 170.69L361.544 162.426"/>
<path class="l13" d="M373.019 167.332L373.268 167.849"/>
<path class="l13" d="M372.52 166.816L373.019 167.332"/>
<path class="l13" d="M369.776 167.849L370.025 167.332"/>
<path class="l13" d="M370.025 167.332L370.524 166.816"/>
<path class="l13" d="M370.524 166.816L371.273 166.558"/>
<path class="l13" d="M371.771 166.558L372.52 166.816"/>
<path class="l13" d="M369.526 169.398L369.776 169.915"/>
<path class="l13" d="M369.776 169.915L370.275 170.431"/>
<path class="l13" d="M373.268 169.915L373.518 169.398"/>
<path class="l13" d="M372.769 170.431L373.268 169.915"/>
<path class="l13" d="M372.021 170.69L372.769 170.431"/>
<path class="l13" d="M370.275 170.431L371.023 170.69"/>
<path class="l13" d="M373.268 167.849L373.518 169.398"/>
<path class="l13" d="M369.526 169.398L369.776 167.849"/>
<path class="l13" d="M371.023 170.69L372.021 170.69"/>
<path class="l13" d="M371.273 166.558L371.771 166.558"/>
<path class="l13" d="M373.268 163.2L373.518 163.717"/>
<path class="l13" d="M372.769 162.684L373.268 163.2"/>
<path class="l13" d="M369.526 163.717L369.776 163.2"/>
<path class="l13" d="M369.776 163.2L370.275 162.684"/>
<path class="l13" d="M370.275 162.684L371.023 162.426"/>
<path class="l13" d="M372.021 162.426L372.769 162.684"/>
<path class="l13" d="M369.776 165.266L370.025 165.783"/>
<path class="l13" d="M370.025 165.783L370.524 166.299"/>
<path class="l13" d="M373.019 165.783L373.268 165.266"/>
<path class="l13" d="M372.52 166.299L373.019 165.783"/>
<path class="l13" d="M371.771 166.558L372.52 166.299"/>
<path class="l13" d="M370.524 166.299L371.273 166.558"/>
<path class="l13" d="M373.268 165.266L373.518 163.717"/>
<path class="l13" d="M369.526 163.717L369.776 165.266"/>
<path class="l13" d="M371.023 162.426L372.021 162.426"/>
<path class="l4" d="M328.969 403.505L328.969 456.329"/>
<path class="l4" d="M296.687 429.917L323.1 429.917"/>
<path class="l4" d="M343.642 394.701L343.642 409.374"/>
<path class="l4" d="M343.642 450.46L343.642 465.133"/>
<path class="l4" d="M323.1 412.309L323.1 447.525"/>
<path class="l4" d="M328.969 409.374L343.642 409.374"/>
<path class="l4" d="M328.969 450.46L337.773 450.46"/>
<path class="l4" style="fill:#88dd00;" d="M337.773 447.525L343.642 450.46L337.773 453.394L337.773 447.525"/>
<path class="l4" d="M328.969 309.595L328.969 362.419"/>
<path class="l4" d="M296.687 336.007L323.1 336.007"/>
<path class="l4" d="M343.642 300.79L343.642 315.464"/>
<path class="l4" d="M343.642 356.55L343.642 371.223"/>
<path class="l4" d="M323.1 318.399L323.1 353.615"/>
<path class="l4" d="M328.969 315.464L343.642 315.464"/>
<path class="l4" d="M328.969 356.55L337.773 356.55"/>
<path class="l4" style="fill:#88dd00;" d="M337.773 353.615L343.642 356.55L337.773 359.484L337.773 353.615"/>
<path class="l4" d="M343.642 512.088L343.642 526.762"/>
<path class="l4" d="M337.773 526.762L349.512 526.762"/>
<path class="l4" d="M343.642 532.631L349.512 526.762"/>
<path class="l4" d="M337.773 526.762L343.642 532.631"/>
<path class="l4" d="M50.1731 112.97L214.516 112.97"/>
<path class="l4" d="M50.1731 183.403L214.516 183.403"/>
<path class="l4" d="M50.1731 112.97L50.1731 183.403"/>
<path class="l4" d="M214.516 112.97L214.516 183.403"/>
<path class="l4" d="M26.6955 148.186L50.1731 148.186"/>
<path class="l4" d="M214.516 148.186L237.993 148.186"/>
<path class="l4" d="M293.753 121.774L293.753 174.599"/>
<path class="l4" d="M308.426 112.97L308.426 127.644"/>
<path class="l4" d="M308.426 168.729L308.426 183.403"/>
<path class="l4" d="M287.883 130.578L287.883 165.795"/>
<path class="l4" d="M293.753 168.729L308.426 168.729"/>
<path class="l4" d="M299.622 127.644L308.426 127.644"/>
<path class="l4" d="M261.471 148.186L276.144 148.186"/>
<path class="l4" style="fill:#88dd00;" d="M299.622 124.709L293.753 127.644L299.622 130.578L299.622 124.709"/>
<circle cx="282.014" cy="148.186" r="5.86939" stroke="rgb(136,221,0)" fill="none" stroke-width="0.739543"/>
<path class="l4" d="M132.344 218.619L132.344 233.292"/>
<path class="l4" d="M126.475 233.292L138.214 233.292"/>
<path class="l4" d="M132.344 239.162L138.214 233.292"/>
<path class="l4" d="M126.475 233.292L132.344 239.162"/>
<path class="l4" d="M132.344 30.7986L132.344 54.2762"/>
<path class="l4" d="M120.606 30.7986L144.083 30.7986"/>
<path class="l5" style="fill:#bb2200;" d="M343.642 426.982L337.773 429.917L343.642 432.852L343.642 426.982"/>
<path class="l5" d="M340.708 391.766L346.577 391.766L346.577 397.635L340.708 397.635L340.708 391.766z"/>
<path class="l5" d="M293.753 426.982L299.622 426.982L299.622 432.852L293.753 432.852L293.753 426.982z"/>
<path class="l5" d="M340.708 462.199L346.577 462.199L346.577 468.068L340.708 468.068L340.708 462.199z"/>
<path class="l5" d="M343.551 429.825L343.734 429.825L343.734 430.009L343.551 430.009L343.551 429.825z"/>
<path class="l5" style="fill:#bb2200;" d="M343.642 333.072L337.773 336.007L343.642 338.941L343.642 333.072"/>
<path class="l5" d="M340.708 297.856L346.577 297.856L346.577 303.725L340.708 303.725L340.708 297.856z"/>
<path class="l5" d="M293.753 333.072L299.622 333.072L299.622 338.941L293.753 338.941L293.753 333.072z"/>
<path class="l5" d="M340.708 368.288L346.577 368.288L346.577 374.158L340.708 374.158L340.708 368.288z"/>
<path class="l5" d="M343.551 335.915L343.734 335.915L343.734 336.098L343.551 336.098L343.551 335.915z"/>
<path class="l5" style="fill:#bb2200;" d="M261.471 429.917L254.134 424.048L244.596 424.048L244.596 435.786L254.134 435.786L261.471 429.917"/>
<path class="l5" d="M261.46 429.905L261.482 429.905L261.482 429.928L261.46 429.928L261.46 429.905z"/>
<path class="l5" style="fill:#bb2200;" d="M449.291 377.092L449.291 388.831L458.829 388.831L466.166 382.962L458.829 377.092L449.291 377.092"/>
<path class="l5" d="M449.28 382.95L449.303 382.95L449.303 382.973L449.28 382.973L449.28 382.95z"/>
<path class="l5" d="M340.708 509.154L346.577 509.154L346.577 515.023L340.708 515.023L340.708 509.154z"/>
<path class="l5" d="M129.41 86.5578L135.279 86.5578L135.279 92.4272L129.41 92.4272L129.41 86.5578z"/>
<path class="l5" d="M23.7608 145.252L29.6302 145.252L29.6302 151.121L23.7608 151.121L23.7608 145.252z"/>
<path class="l5" d="M235.059 145.252L240.928 145.252L240.928 151.121L235.059 151.121L235.059 145.252z"/>
<path class="l5" d="M129.41 203.946L135.279 203.946L135.279 209.815L129.41 209.815L129.41 203.946z"/>
<path class="l5" style="fill:#bb2200;" d="M302.557 145.252L308.426 148.186L302.557 151.121L302.557 145.252"/>
<path class="l5" d="M305.491 180.468L311.361 180.468L311.361 186.337L305.491 186.337L305.491 180.468z"/>
<path class="l5" d="M258.536 145.252L264.406 145.252L264.406 151.121L258.536 151.121L258.536 145.252z"/>
<path class="l5" d="M305.491 110.035L311.361 110.035L311.361 115.905L305.491 115.905L305.491 110.035z"/>
<path class="l5" d="M308.334 148.095L308.518 148.095L308.518 148.278L308.334 148.278L308.334 148.095z"/>
<path class="l5" d="M129.41 215.684L135.279 215.684L135.279 221.554L129.41 221.554L129.41 215.684z"/>
<path class="l5" d="M129.41 51.3415L135.279 51.3415L135.279 57.2109L129.41 57.2109L129.41 51.3415z"/>
<path class="l7" d="M132.344 89.4925L132.344 112.97"/>
<path class="l7" d="M132.344 183.403L132.344 206.88"/>
<path class="l1" d="M343.642 382.962L343.642 394.701"/>
<path class="l1" d="M343.642 230.358L343.642 300.79"/>
<path class="l1" d="M343.642 500.35L343.642 512.088"/>
<path class="l1" d="M261.471 429.917L296.687 429.917"/>
<path class="l1" d="M343.642 382.962L449.291 382.962"/>
<path class="l1" d="M343.642 429.917L367.12 429.917"/>
<path class="l1" d="M367.12 429.917L367.12 500.35"/>
<path class="l1" d="M343.642 500.35L367.12 500.35"/>
<path class="l1" d="M343.642 336.007L367.12 336.007"/>
<path class="l1" d="M367.12 336.007L367.12 429.917"/>
<path class="l1" d="M308.426 230.358L343.642 230.358"/>
<path class="l1" d="M284.949 336.007L296.687 336.007"/>
<path class="l1" d="M284.949 336.007L284.949 500.35"/>
<path class="l1" d="M284.949 500.35L343.642 500.35"/>
<path class="l1" d="M308.426 183.403L308.426 230.358"/>
<path class="l1" d="M237.993 148.186L261.471 148.186"/>
<path class="l1" d="M132.344 206.88L132.344 218.619"/>
<path class="l1" d="M132.344 54.2762L132.344 89.4925"/>
<path class="l1" d="M132.344 54.2762L308.426 54.2762"/>
<path class="l1" d="M308.426 66.015L308.426 112.97"/>
<path class="l1" d="M26.6955 54.2762L26.6955 148.186"/>
<path class="l1" d="M26.6955 54.2762L132.344 54.2762"/>
<path class="l1" d="M308.426 148.186L343.642 148.186"/>
<path class="l1" d="M343.642 66.015L343.642 148.186"/>
<path class="l1" d="M308.426 66.015L343.642 66.015"/>
<path class="l1" d="M343.642 371.223L343.642 382.962"/>
<path class="l1" d="M343.642 465.133L343.642 500.35"/>
<path class="l1" d="M308.426 54.2762L308.426 66.015"/>
<circle cx="132.344" cy="54.2762" r="4.69551" stroke="rgb(0,204,238)" fill="rgb(0,204,238)" stroke-width="0.184886"/>
<circle cx="132.344" cy="54.2762" r="4.69551" stroke="rgb(0,204,238)" fill="rgb(0,204,238)" stroke-width="0.184886"/>
<circle cx="132.344" cy="54.2762" r="4.69551" stroke="rgb(0,204,238)" fill="rgb(0,204,238)" stroke-width="0.184886"/>
<circle cx="343.642" cy="500.35" r="4.69551" stroke="rgb(0,204,238)" fill="rgb(0,204,238)" stroke-width="0.184886"/>
<circle cx="308.426" cy="66.015" r="4.69551" stroke="rgb(0,204,238)" fill="rgb(0,204,238)" stroke-width="0.184886"/>
<circle cx="308.426" cy="66.015" r="4.69551" stroke="rgb(0,204,238)" fill="rgb(0,204,238)" stroke-width="0.184886"/>
<circle cx="308.426" cy="66.015" r="4.69551" stroke="rgb(0,204,238)" fill="rgb(0,204,238)" stroke-width="0.184886"/>
<circle cx="367.12" cy="429.917" r="4.69551" stroke="rgb(0,204,238)" fill="rgb(0,204,238)" stroke-width="0.184886"/>
<circle cx="343.642" cy="500.35" r="4.69551" stroke="rgb(0,204,238)" fill="rgb(0,204,238)" stroke-width="0.184886"/>
<circle cx="343.642" cy="382.962" r="4.69551" stroke="rgb(0,204,238)" fill="rgb(0,204,238)" stroke-width="0.184886"/>
<circle cx="343.642" cy="500.35" r="4.69551" stroke="rgb(0,204,238)" fill="rgb(0,204,238)" stroke-width="0.184886"/>
<circle cx="367.12" cy="429.917" r="4.69551" stroke="rgb(0,204,238)" fill="rgb(0,204,238)" stroke-width="0.184886"/>
<circle cx="367.12" cy="429.917" r="4.69551" stroke="rgb(0,204,238)" fill="rgb(0,204,238)" stroke-width="0.184886"/>
<circle cx="343.642" cy="382.962" r="4.69551" stroke="rgb(0,204,238)" fill="rgb(0,204,238)" stroke-width="0.184886"/>
<circle cx="343.642" cy="500.35" r="4.69551" stroke="rgb(0,204,238)" fill="rgb(0,204,238)" stroke-width="0.184886"/>
<circle cx="343.642" cy="382.962" r="4.69551" stroke="rgb(0,204,238)" fill="rgb(0,204,238)" stroke-width="0.184886"/>
</svg>
